<svg xmlns="http://www.w3.org/2000/svg" viewBox="0 0 785.68 233.64"><defs><style>.cls-1{fill:#59a9de;}.cls-2{fill:#020254;}.cls-3{fill:#fff;}</style></defs><g id="Capa_2" data-name="Capa 2"><g id="Capa_1-2" data-name="Capa 1"><rect class="cls-1" width="785.68" height="233.64" rx="18.31"/><polygon class="cls-2" points="175.42 184.3 175.42 87.44 131.78 167.59 119.3 167.59 75.66 87.44 75.66 184.3 59.19 184.3 59.19 49.34 73.66 49.34 125.54 144.62 177.41 49.34 191.89 49.34 191.89 184.3 175.42 184.3"/><path class="cls-2" d="M555.77,184.29l-28.46-41.87H483.9V184.3H467.61V126.13l66.23-.06c22.28-2.74,22.41-26.3,22.2-31-.58-13.61-12.4-29.44-26.76-29.44H467.61V49.33h61.67c24.23,0,42.13,23.73,43,45,.72,16.9-6.05,38.2-27,45.63l30.12,44.32Z"/><polygon class="cls-2" points="383.84 184.3 383.84 65.62 339.62 65.62 339.62 49.34 446.67 49.34 446.67 65.62 400.13 65.62 400.13 184.3 383.84 184.3"/><path class="cls-3" d="M659,184.3a67.49,67.49,0,1,1,67.48-67.48A67.56,67.56,0,0,1,659,184.3Zm0-118.59a51.11,51.11,0,1,0,51.11,51.11A51.17,51.17,0,0,0,659,65.71Z"/><polygon class="cls-2" points="269.96 91.85 269.96 90.57 269.96 78.59 232.58 78.59 232.58 90.57 232.58 91.85 232.58 95.71 269.96 95.71 269.96 91.85"/><polygon class="cls-2" points="269.96 151.19 269.96 149.92 269.96 137.94 232.58 137.94 232.58 149.92 232.58 151.19 232.58 155.05 269.96 155.05 269.96 151.19"/><rect class="cls-2" x="232.58" y="49.33" width="90.75" height="16.29"/><rect class="cls-2" x="232.58" y="108.68" width="78.98" height="16.29"/><rect class="cls-2" x="232.58" y="168.02" width="90.75" height="16.29"/></g></g></svg>